<?xml version="1.0" encoding="utf-8"?>
<!-- Generator: Adobe Illustrator 26.3.1, SVG Export Plug-In . SVG Version: 6.00 Build 0)  -->
<svg version="1.1" xmlns="http://www.w3.org/2000/svg" xmlns:xlink="http://www.w3.org/1999/xlink" x="0px" y="0px"
	 viewBox="20 30 370 100" style="enable-background:new 0 0 410 160;" xml:space="preserve">
<style type="text/css">
	.st0{fill:#76787A;}
	.st1{fill:#BA0C2F;}
</style>
<g id="Capa_1">
	<g>
		<g>
			<rect x="202.5" y="101.7" class="st0" width="177" height="1.1"/>
			<g>
				<polygon class="st1" points="30,41.4 30,93.2 74.8,93.2 74.8,79.2 44,79.2 44,41.4 				"/>
				<g>
					<rect x="149.5" y="62.3" class="st1" width="14" height="14"/>
					<polygon class="st1" points="128.5,41.4 128.5,93.2 142.5,93.2 142.5,55.4 173.3,55.4 173.3,41.4 					"/>
				</g>
				<polygon class="st1" points="107,35.6 75.3,67.3 107,99 116.9,89.1 95.1,67.3 116.9,45.5 				"/>
			</g>
			<g>
				<g>
					<g>
						<path class="st0" d="M226.4,61c1.1,1.6,2.9,2.3,5,2.3c4,0,6.2-2.9,6.2-8.1c0-4.6-2.5-8-6.1-8c-2.1,0-3.3,0.7-4.9,2.3v-8h-1.8
							V63h1.2L226.4,61z M226.7,51.4c0.6-1,2.6-2.8,4.4-2.8c3.2,0,4.8,2.8,4.8,6.9c0,3.6-1.4,6.4-4.5,6.4c-2.2,0-3.5-1.2-4.7-2.8
							V51.4z"/>
						<path class="st0" d="M267.7,54.2c0-3,2.6-5.3,4.5-5.3h0.8v-1.7h-0.8c-2,0-3.6,1.3-4.5,3.2h-0.1v-2.9h-1.8V63h1.8V54.2z"/>
					</g>
					<rect x="218" y="47.5" class="st0" width="1.8" height="15.5"/>
					<polygon class="st0" points="215.2,61.4 205.6,61.4 205.6,41.5 203.6,41.5 203.6,63 215.2,63 					"/>
					<rect x="218" y="41.5" class="st0" width="1.8" height="2.6"/>
					<g>
						<path class="st0" d="M242.8,54.2c0-3,2.6-5.3,4.5-5.3h0.8v-1.7h-0.8c-2,0-3.6,1.3-4.5,3.2h-0.1v-2.9h-1.8V63h1.8V54.2z"/>
						<path class="st0" d="M256.3,63.3c2.9,0,4.5-1,6.1-3.8l-1.5-0.8c-1.5,2.4-2.5,3.1-4.5,3.1c-3.5,0-5-3-5-6.6h10.8
							c0-4.8-2-8.1-6.2-8.1c-3.9,0-6.4,3.2-6.4,8C249.7,60.7,252.3,63.3,256.3,63.3 M256,48.6c2.7,0,4.1,2.1,4.5,5.2h-9
							C251.5,51.8,252.9,48.6,256,48.6"/>
					</g>
					<polygon class="st0" points="276.3,45.8 277.8,45.8 281.9,41.6 279.6,41.6 					"/>
					<g>
						<path class="st0" d="M290.8,61.1L291,63h1.7c-0.2-1-0.2-2.1-0.2-2.8V52c0-3.4-1.7-4.9-5.2-4.9c-2.5,0-4.4,1-5.8,3.5l1.2,0.7
							c1.1-1.8,2.7-2.8,4.5-2.8c2.7,0,3.5,1,3.5,3.1v1.1c-6.5,1.4-9.9,2.2-9.9,6.4c0,2.6,1.9,4.1,4.3,4.1
							C287.5,63.3,288.9,62.6,290.8,61.1 M282.7,59.2c0-2,0.9-3.4,8-5v5.1c-1.5,1.6-3.6,2.6-5.3,2.6
							C283.8,61.9,282.7,60.9,282.7,59.2"/>
					</g>
					<rect x="275.9" y="47.5" class="st0" width="1.8" height="15.5"/>
				</g>
				<g>
					<g>
						<path class="st0" d="M208.9,93.5c4,0,6.8-1.9,6.8-7.2v-0.9h-4.1v1.4c0,2.4-1,3-2.7,3c-1.6,0-2.7-0.7-2.7-3v-8.8
							c0-2.4,1-3,2.7-3c1.6,0,2.7,0.7,2.7,3v0.6h4.1v-0.1c0-5.3-2.8-7.2-6.8-7.2c-4,0-6.8,1.9-6.8,7.2v7.7
							C202.1,91.6,204.9,93.5,208.9,93.5"/>
						<path class="st0" d="M241.5,80.7v-4.1c-1.9,0-3,0.8-3.9,2.4h-0.1V77h-3.7v16.2h3.8V82.1c0-0.9,0.6-1.8,1.8-1.8
							C240.2,80.3,240.9,80.6,241.5,80.7"/>
					</g>
					<rect x="244.3" y="71.7" class="st0" width="3.7" height="21.5"/>
					<g>
						<path class="st0" d="M230.2,81.6c0-2.9-1.5-4.9-5.5-4.9c-3,0-5.7,1.4-6,5h3.8c0-1.2,1-2,2.1-2c1.1,0,1.9,0.5,1.9,1.9v1.2
							c-4.7,1.4-8.3,3-8.3,6.8c0,2.6,1.5,3.9,3.7,3.9c1.9,0,3.4-0.8,4.5-1.9c0.1,0.7,0.2,1.2,0.3,1.6h3.8c-0.1-0.4-0.2-0.9-0.2-1.3
							V81.6z M226.4,89.2c-0.9,0.9-1.7,1.5-2.8,1.5c-1,0-1.7-0.6-1.7-1.7c0-1.7,2.3-3,4.5-3.7V89.2z"/>
						<path class="st0" d="M324.5,88.2c0,1.3-0.6,2.3-2.2,2.3c-1.2,0-2.2-0.7-2.2-2.3V86h8.2v-3.8c0-3.3-2.5-5.5-6-5.5
							c-3.6,0-6,2.2-6,5.8v5.3c0,3.5,2.4,5.7,6,5.7c3.8,0,5.8-2,6-5.3H324.5z M320.1,82.1c0-1.4,0.7-2.3,2.2-2.3
							c1.5,0,2.2,0.9,2.2,2.3V83h-4.4V82.1z"/>
						<path class="st0" d="M339.4,76.7c-1.5,0-2.8,1-4.2,2.1V77h-3.6v16.2h3.8V81c0.8-0.7,1.7-1.5,2.4-1.5c1,0,1.4,0.7,1.4,1.8v11.9
							h3.7V80.9C342.9,77.9,341.7,76.7,339.4,76.7"/>
					</g>
					<polygon class="st0" points="288.6,93.2 292.7,93.2 292.7,83.9 297.9,83.9 297.9,80.3 292.7,80.3 292.7,75.3 299.3,75.3 
						299.3,71.7 288.6,71.7 					"/>
					<path class="st0" d="M350.4,93.5c0.7,0,1.4,0,2.2-0.1v-3.2c-0.2,0-0.5,0-0.7,0c-1,0-1.7-0.4-1.7-1.2v-8.3h2.4v-3h-2.4v-4.4
						h-3.7v4.4h-1.5v3h1.5v9.5C346.3,92.6,347.9,93.5,350.4,93.5"/>
					<path class="st0" d="M374.6,90.5c-1.5,0-2.4-1-2.7-2.5l-3.4,0.9c1.8,4,3.9,4.6,6.1,4.6c3.1,0,5.4-1.7,5.4-4.9
						c0-4.8-7.3-4.9-7.3-7.4c0-0.8,0.7-1.5,1.5-1.5c1.1,0,2.1,0.7,2.6,2.2l3.1-1.2c-0.9-2.4-2.9-4.1-5.7-4.1c-2.7,0-5.1,1.5-5.1,4.5
						c0,5.4,7.3,4.7,7.3,7.8C376.4,89.9,375.7,90.5,374.6,90.5"/>
					<path class="st0" d="M360.4,76.7c-3.6,0-6,2.2-6,5.8v5.3c0,3.5,2.4,5.7,6,5.7c3.8,0,5.8-2,6-5.3h-3.7c0,1.3-0.6,2.3-2.2,2.3
						c-1.2,0-2.2-0.7-2.2-2.3V86h8.2v-3.8C366.3,78.9,363.9,76.7,360.4,76.7 M362.6,83h-4.4v-0.9c0-1.4,0.7-2.3,2.2-2.3
						c1.5,0,2.2,0.9,2.2,2.3V83z"/>
					<path class="st0" d="M309.4,91.4v1.8h3.6V77h-3.8v12.3c-0.8,0.7-1.7,1.5-2.4,1.5c-1,0-1.4-0.7-1.4-1.8V77h-3.8v12.3
						c0,3,1.2,4.2,3.5,4.2C306.8,93.5,308.1,92.5,309.4,91.4"/>
					<path class="st0" d="M263.7,82.8c0-4.3-2.2-6.1-6-6.1c-3.8,0-6,1.8-6,6.1v4.5c0,4.3,2.2,6.1,6,6.1c3.8,0,6-1.8,6-6.1V82.8z
						 M260,88.3c0,1.2-0.9,1.9-2.2,1.9c-1.3,0-2.2-0.7-2.2-1.9v-6.4c0-1.3,0.9-1.9,2.2-1.9c1.3,0,2.2,0.7,2.2,1.9V88.3z"/>
					<path class="st0" d="M270,81.2c0-0.8,0.7-1.5,1.5-1.5c1.1,0,2.1,0.7,2.6,2.2l3.1-1.2c-0.9-2.4-2.9-4.1-5.7-4.1
						c-2.6,0-5.1,1.5-5.1,4.5c0,5.4,7.3,4.7,7.3,7.8c0,0.9-0.7,1.4-1.8,1.4c-1.5,0-2.4-1-2.8-2.5l-3.4,0.9c1.8,4,3.9,4.6,6.1,4.6
						c3.1,0,5.4-1.7,5.4-4.9C277.4,83.8,270,83.7,270,81.2"/>
				</g>
			</g>
		</g>
		<g>
			<path class="st0" d="M205.4,110.1v7.9c0,1.1,0.5,1.6,1.5,1.6c1,0,1.5-0.5,1.5-1.6v-7.9h2.2v7.9c0,1.2-0.3,2.1-1,2.7
				c-0.7,0.6-1.6,0.9-2.7,0.9c-1.2,0-2.1-0.3-2.7-0.9c-0.6-0.6-1-1.5-1-2.7v-7.9H205.4z"/>
			<path class="st0" d="M212.6,121.4v-8.5h1.9v1c0.4-0.4,0.8-0.7,1.1-0.8c0.3-0.2,0.7-0.3,1.1-0.3c0.6,0,1.1,0.2,1.4,0.5
				c0.3,0.3,0.5,0.9,0.5,1.7v6.5h-2v-6.2c0-0.3-0.1-0.5-0.2-0.7c-0.1-0.2-0.3-0.2-0.6-0.2c-0.2,0-0.4,0.1-0.6,0.2
				c-0.2,0.1-0.4,0.3-0.7,0.6v6.4H212.6z"/>
			<path class="st0" d="M220.7,111.4v-1.8h2v1.8H220.7z M222.6,112.9v8.5h-2v-8.5H222.6z"/>
			<path class="st0" d="M227.3,118.4L227.3,118.4l1.3-5.5h2l-2.3,8.5h-1.9l-2.3-8.5h2L227.3,118.4z"/>
			<path class="st0" d="M233.5,117.6v1.1c0,0.4,0.1,0.7,0.3,0.9c0.2,0.2,0.5,0.3,0.8,0.3c0.4,0,0.7-0.1,0.9-0.3
				c0.2-0.2,0.3-0.5,0.3-0.9h2c-0.1,0.9-0.3,1.6-0.9,2.1c-0.5,0.5-1.3,0.7-2.3,0.7c-0.9,0-1.7-0.3-2.3-0.8c-0.6-0.5-0.9-1.3-0.9-2.2
				v-2.8c0-0.9,0.3-1.7,0.9-2.2c0.6-0.5,1.3-0.8,2.3-0.8c0.9,0,1.7,0.3,2.2,0.8c0.6,0.5,0.9,1.2,0.9,2.1v2H233.5z M235.8,116v-0.5
				c0-0.4-0.1-0.7-0.3-0.9c-0.2-0.2-0.5-0.3-0.9-0.3c-0.4,0-0.7,0.1-0.9,0.3s-0.3,0.5-0.3,0.9v0.5H235.8z"/>
			<path class="st0" d="M239.5,121.4v-8.5h1.9v1.1h0c0.2-0.4,0.5-0.8,0.8-1c0.3-0.2,0.7-0.3,1.2-0.3v2.1l-0.1,0
				c-0.4-0.1-0.7-0.2-0.9-0.2c-0.3,0-0.5,0.1-0.7,0.3c-0.2,0.2-0.3,0.4-0.3,0.7v5.8H239.5z"/>
			<path class="st0" d="M248.5,115.5c-0.3-0.8-0.7-1.2-1.4-1.2c-0.2,0-0.4,0.1-0.6,0.2c-0.2,0.1-0.2,0.3-0.2,0.5
				c0,0.2,0.1,0.5,0.3,0.6c0.2,0.2,0.6,0.4,1.1,0.6c0.4,0.2,0.7,0.3,0.9,0.5c0.2,0.1,0.5,0.3,0.7,0.5s0.4,0.4,0.5,0.7
				c0.1,0.3,0.2,0.6,0.2,0.9c0,0.8-0.3,1.5-0.8,1.9c-0.5,0.4-1.2,0.7-2,0.7c-0.7,0-1.3-0.2-1.8-0.5c-0.5-0.3-1-1-1.4-1.9l1.8-0.5
				c0.1,0.4,0.3,0.7,0.5,1c0.2,0.2,0.6,0.4,0.9,0.4c0.3,0,0.5-0.1,0.7-0.2c0.2-0.1,0.3-0.3,0.3-0.5c0-0.3-0.1-0.6-0.4-0.7
				c-0.2-0.2-0.6-0.4-1.1-0.6c-0.4-0.2-0.7-0.3-0.9-0.5c-0.2-0.1-0.5-0.3-0.7-0.5c-0.2-0.2-0.4-0.4-0.5-0.7c-0.1-0.3-0.2-0.6-0.2-1
				c0-0.8,0.3-1.3,0.8-1.8c0.5-0.4,1.2-0.6,1.9-0.6c0.7,0,1.3,0.2,1.8,0.6c0.5,0.4,0.9,0.9,1.1,1.6L248.5,115.5z"/>
			<path class="st0" d="M251.9,111.4v-1.8h2v1.8H251.9z M253.9,112.9v8.5h-2v-8.5H253.9z"/>
			<path class="st0" d="M260.1,121.4v-1h0c-0.2,0.3-0.5,0.6-0.9,0.8c-0.4,0.2-0.8,0.4-1.2,0.4c-0.7,0-1.3-0.3-1.6-0.8
				c-0.3-0.6-0.5-1.4-0.5-2.5v-2.1c0-1.1,0.2-2,0.5-2.5c0.3-0.6,0.9-0.8,1.6-0.8c0.3,0,0.5,0.1,0.8,0.2c0.3,0.1,0.7,0.4,1.1,0.7
				v-3.6h2v11.3H260.1z M260,114.8c-0.4-0.4-0.8-0.6-1.2-0.6c-0.3,0-0.5,0.1-0.7,0.4c-0.2,0.3-0.3,0.8-0.3,1.6v1.8
				c0,0.8,0.1,1.3,0.3,1.6c0.2,0.3,0.4,0.4,0.7,0.4c0.4,0,0.8-0.2,1.2-0.6V114.8z"/>
			<path class="st0" d="M263.6,115.4c0.1-0.9,0.4-1.6,1-2c0.6-0.4,1.3-0.6,2.2-0.6c1,0,1.7,0.2,2.2,0.7c0.5,0.5,0.7,1.1,0.7,1.9v5.4
				c0,0.2,0,0.4,0.1,0.7h-2c0-0.1,0-0.2-0.1-0.4c0-0.2-0.1-0.3-0.1-0.4c-0.3,0.3-0.7,0.6-1.1,0.7c-0.4,0.2-0.8,0.3-1.3,0.3
				c-0.6,0-1.1-0.2-1.4-0.5c-0.3-0.3-0.5-0.8-0.5-1.5c0-0.5,0.1-0.9,0.3-1.3c0.2-0.4,0.5-0.7,0.9-1c0.4-0.3,0.8-0.5,1.3-0.7
				c0.5-0.2,1.1-0.4,1.8-0.6v-0.6c0-0.3-0.1-0.6-0.3-0.8c-0.2-0.2-0.4-0.2-0.7-0.2c-0.3,0-0.6,0.1-0.8,0.3c-0.2,0.2-0.3,0.4-0.3,0.7
				H263.6z M267.7,117.2c-0.7,0.2-1.2,0.5-1.7,0.9c-0.4,0.3-0.7,0.7-0.7,1.1c0,0.3,0.1,0.5,0.2,0.7c0.2,0.2,0.4,0.2,0.6,0.2
				c0.3,0,0.5-0.1,0.8-0.2c0.2-0.1,0.5-0.3,0.7-0.6V117.2z"/>
			<path class="st0" d="M275.7,121.4v-1h0c-0.2,0.3-0.5,0.6-0.9,0.8s-0.8,0.4-1.2,0.4c-0.7,0-1.3-0.3-1.6-0.8
				c-0.3-0.6-0.5-1.4-0.5-2.5v-2.1c0-1.1,0.2-2,0.5-2.5c0.3-0.6,0.9-0.8,1.6-0.8c0.3,0,0.5,0.1,0.8,0.2c0.3,0.1,0.7,0.4,1.1,0.7
				v-3.6h2v11.3H275.7z M275.6,114.8c-0.4-0.4-0.8-0.6-1.2-0.6c-0.3,0-0.5,0.1-0.7,0.4c-0.2,0.3-0.3,0.8-0.3,1.6v1.8
				c0,0.8,0.1,1.3,0.3,1.6c0.2,0.3,0.4,0.4,0.7,0.4c0.4,0,0.8-0.2,1.2-0.6V114.8z"/>
			<path class="st0" d="M287.9,121.4v-1h0c-0.2,0.3-0.5,0.6-0.9,0.8c-0.4,0.2-0.8,0.4-1.2,0.4c-0.7,0-1.3-0.3-1.6-0.8
				c-0.3-0.6-0.5-1.4-0.5-2.5v-2.1c0-1.1,0.2-2,0.5-2.5c0.3-0.6,0.9-0.8,1.6-0.8c0.3,0,0.5,0.1,0.8,0.2c0.3,0.1,0.7,0.4,1.1,0.7
				v-3.6h2v11.3H287.9z M287.7,114.8c-0.4-0.4-0.8-0.6-1.2-0.6c-0.3,0-0.5,0.1-0.7,0.4c-0.2,0.3-0.3,0.8-0.3,1.6v1.8
				c0,0.8,0.1,1.3,0.3,1.6c0.2,0.3,0.4,0.4,0.7,0.4c0.4,0,0.8-0.2,1.2-0.6V114.8z"/>
			<path class="st0" d="M293.4,117.6v1.1c0,0.4,0.1,0.7,0.3,0.9c0.2,0.2,0.5,0.3,0.8,0.3c0.4,0,0.7-0.1,0.9-0.3
				c0.2-0.2,0.3-0.5,0.3-0.9h2c-0.1,0.9-0.3,1.6-0.9,2.1c-0.5,0.5-1.3,0.7-2.3,0.7c-0.9,0-1.7-0.3-2.3-0.8c-0.6-0.5-0.9-1.3-0.9-2.2
				v-2.8c0-0.9,0.3-1.7,0.9-2.2c0.6-0.5,1.3-0.8,2.3-0.8c0.9,0,1.7,0.3,2.2,0.8c0.6,0.5,0.9,1.2,0.9,2.1v2H293.4z M295.7,116v-0.5
				c0-0.4-0.1-0.7-0.3-0.9c-0.2-0.2-0.5-0.3-0.9-0.3c-0.4,0-0.7,0.1-0.9,0.3s-0.3,0.5-0.3,0.9v0.5H295.7z"/>
			<path class="st0" d="M309.1,120.5c-0.3,0.4-0.6,0.6-1,0.8c-0.3,0.2-0.7,0.3-1.1,0.3c-0.5,0-1-0.1-1.5-0.2
				c-0.4-0.1-0.8-0.4-1.1-0.7c-0.3-0.3-0.6-0.7-0.7-1.2c-0.2-0.5-0.3-1.1-0.3-1.7v-4c0-0.7,0.1-1.3,0.3-1.7c0.2-0.5,0.4-0.9,0.7-1.2
				c0.3-0.3,0.7-0.5,1.1-0.7c0.4-0.1,0.9-0.2,1.5-0.2c2.2,0,3.4,1.3,3.5,3.8h-2.2c0-0.7-0.1-1.2-0.3-1.5c-0.2-0.3-0.6-0.4-1-0.4
				c-0.5,0-0.8,0.1-1,0.4c-0.2,0.2-0.4,0.6-0.4,1.2v4.6c0,0.6,0.1,1,0.4,1.2c0.2,0.2,0.6,0.4,1,0.4c0.4,0,0.7-0.1,1-0.4
				c0.2-0.3,0.4-0.7,0.4-1.1v-0.7h-1.5v-1.8h3.7v5.8h-1.1L309.1,120.5z"/>
			<path class="st0" d="M318.3,112.9v8.5h-1.9v-1c-0.4,0.4-0.8,0.7-1.1,0.8c-0.3,0.2-0.7,0.3-1.1,0.3c-0.6,0-1.1-0.2-1.4-0.5
				c-0.3-0.3-0.5-0.9-0.5-1.7v-6.5h2v6.2c0,0.3,0.1,0.5,0.2,0.7c0.1,0.2,0.3,0.2,0.5,0.2c0.2,0,0.4-0.1,0.6-0.2
				c0.2-0.1,0.4-0.3,0.7-0.6v-6.4H318.3z"/>
			<path class="st0" d="M320,115.4c0.1-0.9,0.4-1.6,1-2c0.6-0.4,1.3-0.6,2.2-0.6c1,0,1.7,0.2,2.2,0.7c0.5,0.5,0.7,1.1,0.7,1.9v5.4
				c0,0.2,0,0.4,0.1,0.7h-2c0-0.1,0-0.2-0.1-0.4c0-0.2-0.1-0.3-0.1-0.4c-0.3,0.3-0.7,0.6-1.1,0.7c-0.4,0.2-0.8,0.3-1.3,0.3
				c-0.6,0-1.1-0.2-1.4-0.5c-0.3-0.3-0.5-0.8-0.5-1.5c0-0.5,0.1-0.9,0.3-1.3c0.2-0.4,0.5-0.7,0.9-1c0.4-0.3,0.8-0.5,1.3-0.7
				c0.5-0.2,1.1-0.4,1.8-0.6v-0.6c0-0.3-0.1-0.6-0.3-0.8c-0.2-0.2-0.4-0.2-0.7-0.2c-0.3,0-0.6,0.1-0.8,0.3c-0.2,0.2-0.3,0.4-0.3,0.7
				H320z M324.1,117.2c-0.7,0.2-1.2,0.5-1.7,0.9s-0.7,0.7-0.7,1.1c0,0.3,0.1,0.5,0.2,0.7c0.2,0.2,0.4,0.2,0.6,0.2
				c0.3,0,0.5-0.1,0.8-0.2c0.2-0.1,0.5-0.3,0.7-0.6V117.2z"/>
			<path class="st0" d="M332.1,121.4v-1h0c-0.2,0.3-0.5,0.6-0.9,0.8c-0.4,0.2-0.8,0.4-1.2,0.4c-0.7,0-1.3-0.3-1.6-0.8
				c-0.3-0.6-0.5-1.4-0.5-2.5v-2.1c0-1.1,0.2-2,0.5-2.5c0.3-0.6,0.9-0.8,1.6-0.8c0.3,0,0.5,0.1,0.8,0.2c0.3,0.1,0.7,0.4,1.1,0.7
				v-3.6h2v11.3H332.1z M332,114.8c-0.4-0.4-0.8-0.6-1.2-0.6c-0.3,0-0.5,0.1-0.7,0.4c-0.2,0.3-0.3,0.8-0.3,1.6v1.8
				c0,0.8,0.1,1.3,0.3,1.6c0.2,0.3,0.4,0.4,0.7,0.4c0.4,0,0.8-0.2,1.2-0.6V114.8z"/>
			<path class="st0" d="M335.6,115.4c0.1-0.9,0.4-1.6,1-2c0.6-0.4,1.3-0.6,2.2-0.6c1,0,1.7,0.2,2.2,0.7c0.5,0.5,0.7,1.1,0.7,1.9v5.4
				c0,0.2,0,0.4,0.1,0.7h-2c0-0.1,0-0.2-0.1-0.4c0-0.2-0.1-0.3-0.1-0.4c-0.3,0.3-0.7,0.6-1.1,0.7c-0.4,0.2-0.8,0.3-1.3,0.3
				c-0.6,0-1.1-0.2-1.4-0.5c-0.3-0.3-0.5-0.8-0.5-1.5c0-0.5,0.1-0.9,0.3-1.3c0.2-0.4,0.5-0.7,0.9-1c0.4-0.3,0.8-0.5,1.3-0.7
				c0.5-0.2,1.1-0.4,1.8-0.6v-0.6c0-0.3-0.1-0.6-0.3-0.8c-0.2-0.2-0.4-0.2-0.7-0.2c-0.3,0-0.6,0.1-0.8,0.3c-0.2,0.2-0.3,0.4-0.3,0.7
				H335.6z M339.7,117.2c-0.7,0.2-1.2,0.5-1.7,0.9s-0.7,0.7-0.7,1.1c0,0.3,0.1,0.5,0.2,0.7c0.2,0.2,0.4,0.2,0.6,0.2
				c0.3,0,0.5-0.1,0.8-0.2c0.2-0.1,0.5-0.3,0.7-0.6V117.2z"/>
			<path class="st0" d="M343.9,110.1h2v11.3h-2V110.1z"/>
			<path class="st0" d="M347.8,115.4c0.1-0.9,0.4-1.6,1-2c0.6-0.4,1.3-0.6,2.2-0.6c1,0,1.7,0.2,2.2,0.7c0.5,0.5,0.7,1.1,0.7,1.9v5.4
				c0,0.2,0,0.4,0.1,0.7h-2c0-0.1,0-0.2-0.1-0.4c0-0.2-0.1-0.3-0.1-0.4c-0.3,0.3-0.7,0.6-1.1,0.7c-0.4,0.2-0.8,0.3-1.3,0.3
				c-0.6,0-1.1-0.2-1.4-0.5c-0.3-0.3-0.5-0.8-0.5-1.5c0-0.5,0.1-0.9,0.3-1.3c0.2-0.4,0.5-0.7,0.9-1c0.4-0.3,0.8-0.5,1.3-0.7
				c0.5-0.2,1.1-0.4,1.8-0.6v-0.6c0-0.3-0.1-0.6-0.3-0.8c-0.2-0.2-0.4-0.2-0.7-0.2c-0.3,0-0.6,0.1-0.8,0.3c-0.2,0.2-0.3,0.4-0.3,0.7
				H347.8z M351.9,117.2c-0.7,0.2-1.2,0.5-1.7,0.9c-0.4,0.3-0.7,0.7-0.7,1.1c0,0.3,0.1,0.5,0.2,0.7c0.2,0.2,0.4,0.2,0.6,0.2
				c0.3,0,0.5-0.1,0.8-0.2c0.2-0.1,0.5-0.3,0.7-0.6V117.2z"/>
			<path class="st0" d="M358,112.9v9.2c0,0.8-0.2,1.3-0.7,1.7c-0.4,0.4-1,0.6-1.7,0.6c-0.3,0-0.5,0-0.7,0v-1.7
				c0.4,0,0.7-0.1,0.9-0.2c0.2-0.1,0.3-0.3,0.3-0.6v-8.9H358z M356,111.4v-1.8h2v1.8H356z"/>
			<path class="st0" d="M359.9,115.4c0.1-0.9,0.4-1.6,1-2c0.6-0.4,1.3-0.6,2.2-0.6c1,0,1.7,0.2,2.2,0.7c0.5,0.5,0.7,1.1,0.7,1.9v5.4
				c0,0.2,0,0.4,0.1,0.7h-2c0-0.1,0-0.2-0.1-0.4c0-0.2-0.1-0.3-0.1-0.4c-0.3,0.3-0.7,0.6-1.1,0.7c-0.4,0.2-0.8,0.3-1.3,0.3
				c-0.6,0-1.1-0.2-1.4-0.5c-0.3-0.3-0.5-0.8-0.5-1.5c0-0.5,0.1-0.9,0.3-1.3c0.2-0.4,0.5-0.7,0.9-1c0.4-0.3,0.8-0.5,1.3-0.7
				c0.5-0.2,1.1-0.4,1.8-0.6v-0.6c0-0.3-0.1-0.6-0.3-0.8c-0.2-0.2-0.4-0.2-0.7-0.2c-0.3,0-0.6,0.1-0.8,0.3c-0.2,0.2-0.3,0.4-0.3,0.7
				H359.9z M364,117.2c-0.7,0.2-1.2,0.5-1.7,0.9c-0.4,0.3-0.7,0.7-0.7,1.1c0,0.3,0.1,0.5,0.2,0.7c0.2,0.2,0.4,0.2,0.6,0.2
				c0.3,0,0.5-0.1,0.8-0.2c0.2-0.1,0.5-0.3,0.7-0.6V117.2z"/>
			<path class="st0" d="M367.9,121.4v-8.5h1.9v1.1h0c0.2-0.4,0.5-0.8,0.8-1c0.3-0.2,0.7-0.3,1.2-0.3v2.1l-0.1,0
				c-0.4-0.1-0.7-0.2-0.9-0.2c-0.3,0-0.5,0.1-0.7,0.3c-0.2,0.2-0.3,0.4-0.3,0.7v5.8H367.9z"/>
			<path class="st0" d="M372.9,115.4c0.1-0.9,0.4-1.6,1-2c0.6-0.4,1.3-0.6,2.2-0.6c1,0,1.7,0.2,2.2,0.7c0.5,0.5,0.7,1.1,0.7,1.9v5.4
				c0,0.2,0,0.4,0.1,0.7h-2c0-0.1,0-0.2-0.1-0.4c0-0.2-0.1-0.3-0.1-0.4c-0.3,0.3-0.7,0.6-1.1,0.7c-0.4,0.2-0.8,0.3-1.3,0.3
				c-0.6,0-1.1-0.2-1.4-0.5c-0.3-0.3-0.5-0.8-0.5-1.5c0-0.5,0.1-0.9,0.3-1.3c0.2-0.4,0.5-0.7,0.9-1c0.4-0.3,0.8-0.5,1.3-0.7
				c0.5-0.2,1.1-0.4,1.8-0.6v-0.6c0-0.3-0.1-0.6-0.3-0.8c-0.2-0.2-0.4-0.2-0.7-0.2c-0.3,0-0.6,0.1-0.8,0.3c-0.2,0.2-0.3,0.4-0.3,0.7
				H372.9z M377,117.2c-0.7,0.2-1.2,0.5-1.7,0.9c-0.4,0.3-0.7,0.7-0.7,1.1c0,0.3,0.1,0.5,0.2,0.7c0.2,0.2,0.4,0.2,0.6,0.2
				c0.3,0,0.5-0.1,0.8-0.2c0.2-0.1,0.5-0.3,0.7-0.6V117.2z"/>
		</g>
	</g>
</g>
<g id="Capa_2">
</g>
</svg>
